<?xml version="1.0" standalone="no"?>
 <!DOCTYPE svg PUBLIC "-//W3C//DTD SVG 1.1//EN" 
 "http://www.w3.org/Graphics/SVG/1.1/DTD/svg11.dtd"> 
<svg
  xmlns:svg="http://www.w3.org/2000/svg"
  xmlns="http://www.w3.org/2000/svg"
  xmlns:xlink="http://www.w3.org/1999/xlink"
  version="1.1"
  width="29.700220cm" height="21.000720cm" viewBox="0 0 116930 82680">
<title>SVG Picture created as SolarCarDisplay-F_Paste.svg date 2022/02/16 21:22:16 </title>
  <desc>Picture generated by PCBNEW </desc>
<g style="fill:#000000; fill-opacity:1;stroke:#000000; stroke-opacity:1;
stroke-linecap:round; stroke-linejoin:round;"
 transform="translate(0 0) scale(1 1)">
</g>
<g style="fill:#000000; fill-opacity:0.0; 
stroke:#000000; stroke-width:-0.000393701; stroke-opacity:1; 
stroke-linecap:round; stroke-linejoin:round;">
</g>
<g style="fill:#000000; fill-opacity:0.0; 
stroke:#000000; stroke-width:39.3701; stroke-opacity:1; 
stroke-linecap:round; stroke-linejoin:round;">
</g>
<g style="fill:#000000; fill-opacity:0.0; 
stroke:#000000; stroke-width:59.0551; stroke-opacity:1; 
stroke-linecap:round; stroke-linejoin:round;">
<rect x="69685.9" y="65357.2" width="42519.7" height="12598.4" rx="0" />
</g>
<g style="fill:#000000; fill-opacity:0.0; 
stroke:#000000; stroke-width:39.3701; stroke-opacity:1; 
stroke-linecap:round; stroke-linejoin:round;">
</g>
<g style="fill:#000000; fill-opacity:0.0; 
stroke:#000000; stroke-width:59.0551; stroke-opacity:1; 
stroke-linecap:round; stroke-linejoin:round;">
<rect x="3937.01" y="3937.01" width="109056" height="74806" rx="0" />
</g>
<g style="fill:#000000; fill-opacity:0.0; 
stroke:#000000; stroke-width:39.3701; stroke-opacity:1; 
stroke-linecap:round; stroke-linejoin:round;">
</g>
<g style="fill:#000000; fill-opacity:0.0; 
stroke:#000000; stroke-width:59.0551; stroke-opacity:1; 
stroke-linecap:round; stroke-linejoin:round;">
<rect x="4724.41" y="4724.41" width="107481" height="73231.2" rx="0" />
</g>
<g style="fill:#000000; fill-opacity:0.0; 
stroke:#000000; stroke-width:39.3701; stroke-opacity:1; 
stroke-linecap:round; stroke-linejoin:round;">
</g>
<g style="fill:#000000; fill-opacity:0.0; 
stroke:#000000; stroke-width:59.0551; stroke-opacity:1; 
stroke-linecap:round; stroke-linejoin:round;">
<path d="M23622 4724
L23622 3937
" />
</g>
<g style="fill:#000000; fill-opacity:0.0; 
stroke:#000000; stroke-width:39.3701; stroke-opacity:1; 
stroke-linecap:round; stroke-linejoin:round;">
</g>
<g style="fill:#000000; fill-opacity:0.0; 
stroke:#000000; stroke-width:59.0551; stroke-opacity:1; 
stroke-linecap:round; stroke-linejoin:round;">
<path d="M43307 4724
L43307 3937
" />
</g>
<g style="fill:#000000; fill-opacity:0.0; 
stroke:#000000; stroke-width:39.3701; stroke-opacity:1; 
stroke-linecap:round; stroke-linejoin:round;">
</g>
<g style="fill:#000000; fill-opacity:0.0; 
stroke:#000000; stroke-width:59.0551; stroke-opacity:1; 
stroke-linecap:round; stroke-linejoin:round;">
<path d="M62992 4724
L62992 3937
" />
</g>
<g style="fill:#000000; fill-opacity:0.0; 
stroke:#000000; stroke-width:39.3701; stroke-opacity:1; 
stroke-linecap:round; stroke-linejoin:round;">
</g>
<g style="fill:#000000; fill-opacity:0.0; 
stroke:#000000; stroke-width:59.0551; stroke-opacity:1; 
stroke-linecap:round; stroke-linejoin:round;">
<path d="M82677 4724
L82677 3937
" />
</g>
<g style="fill:#000000; fill-opacity:0.0; 
stroke:#000000; stroke-width:39.3701; stroke-opacity:1; 
stroke-linecap:round; stroke-linejoin:round;">
</g>
<g style="fill:#000000; fill-opacity:0.0; 
stroke:#000000; stroke-width:59.0551; stroke-opacity:1; 
stroke-linecap:round; stroke-linejoin:round;">
<path d="M102362 4724
L102362 3937
" />
</g>
<g style="fill:#000000; fill-opacity:0.0; 
stroke:#000000; stroke-width:39.3701; stroke-opacity:1; 
stroke-linecap:round; stroke-linejoin:round;">
</g>
<g style="fill:#000000; fill-opacity:0.0; 
stroke:#000000; stroke-width:59.0551; stroke-opacity:1; 
stroke-linecap:round; stroke-linejoin:round;">
<text x="13779.5" y="4586.61"
textLength="546.494" font-size="682.415" lengthAdjust="spacingAndGlyphs"
text-anchor="start" opacity="0">1</text>
<path d="M14199 4562
L13906 4562
" />
<path d="M14052 4562
L14052 4050
L14004 4123
L13955 4172
L13906 4196
" />
</g>
<g style="fill:#000000; fill-opacity:0.0; 
stroke:#000000; stroke-width:39.3701; stroke-opacity:1; 
stroke-linecap:round; stroke-linejoin:round;">
</g>
<g style="fill:#000000; fill-opacity:0.0; 
stroke:#000000; stroke-width:59.0551; stroke-opacity:1; 
stroke-linecap:round; stroke-linejoin:round;">
<text x="33464.6" y="4586.61"
textLength="546.494" font-size="682.415" lengthAdjust="spacingAndGlyphs"
text-anchor="start" opacity="0">2</text>
<path d="M33591 4099
L33615 4074
L33664 4050
L33786 4050
L33835 4074
L33859 4099
L33884 4147
L33884 4196
L33859 4269
L33567 4562
L33884 4562
" />
</g>
<g style="fill:#000000; fill-opacity:0.0; 
stroke:#000000; stroke-width:39.3701; stroke-opacity:1; 
stroke-linecap:round; stroke-linejoin:round;">
</g>
<g style="fill:#000000; fill-opacity:0.0; 
stroke:#000000; stroke-width:59.0551; stroke-opacity:1; 
stroke-linecap:round; stroke-linejoin:round;">
<text x="53149.6" y="4586.61"
textLength="546.494" font-size="682.415" lengthAdjust="spacingAndGlyphs"
text-anchor="start" opacity="0">3</text>
<path d="M53252 4050
L53569 4050
L53398 4245
L53471 4245
L53520 4269
L53544 4294
L53569 4342
L53569 4464
L53544 4513
L53520 4537
L53471 4562
L53325 4562
L53276 4537
L53252 4513
" />
</g>
<g style="fill:#000000; fill-opacity:0.0; 
stroke:#000000; stroke-width:39.3701; stroke-opacity:1; 
stroke-linecap:round; stroke-linejoin:round;">
</g>
<g style="fill:#000000; fill-opacity:0.0; 
stroke:#000000; stroke-width:59.0551; stroke-opacity:1; 
stroke-linecap:round; stroke-linejoin:round;">
<text x="72834.6" y="4586.61"
textLength="546.494" font-size="682.415" lengthAdjust="spacingAndGlyphs"
text-anchor="start" opacity="0">4</text>
<path d="M73205 4221
L73205 4562
" />
<path d="M73083 4026
L72961 4391
L73278 4391
" />
</g>
<g style="fill:#000000; fill-opacity:0.0; 
stroke:#000000; stroke-width:39.3701; stroke-opacity:1; 
stroke-linecap:round; stroke-linejoin:round;">
</g>
<g style="fill:#000000; fill-opacity:0.0; 
stroke:#000000; stroke-width:59.0551; stroke-opacity:1; 
stroke-linecap:round; stroke-linejoin:round;">
<text x="92519.7" y="4586.61"
textLength="546.494" font-size="682.415" lengthAdjust="spacingAndGlyphs"
text-anchor="start" opacity="0">5</text>
<path d="M92914 4050
L92671 4050
L92646 4294
L92671 4269
L92719 4245
L92841 4245
L92890 4269
L92914 4294
L92939 4342
L92939 4464
L92914 4513
L92890 4537
L92841 4562
L92719 4562
L92671 4537
L92646 4513
" />
</g>
<g style="fill:#000000; fill-opacity:0.0; 
stroke:#000000; stroke-width:39.3701; stroke-opacity:1; 
stroke-linecap:round; stroke-linejoin:round;">
</g>
<g style="fill:#000000; fill-opacity:0.0; 
stroke:#000000; stroke-width:59.0551; stroke-opacity:1; 
stroke-linecap:round; stroke-linejoin:round;">
<text x="112205" y="4586.61"
textLength="546.494" font-size="682.415" lengthAdjust="spacingAndGlyphs"
text-anchor="start" opacity="0">6</text>
<path d="M112575 4050
L112477 4050
L112429 4074
L112404 4099
L112356 4172
L112331 4269
L112331 4464
L112356 4513
L112380 4537
L112429 4562
L112526 4562
L112575 4537
L112599 4513
L112624 4464
L112624 4342
L112599 4294
L112575 4269
L112526 4245
L112429 4245
L112380 4269
L112356 4294
L112331 4342
" />
</g>
<g style="fill:#000000; fill-opacity:0.0; 
stroke:#000000; stroke-width:39.3701; stroke-opacity:1; 
stroke-linecap:round; stroke-linejoin:round;">
</g>
<g style="fill:#000000; fill-opacity:0.0; 
stroke:#000000; stroke-width:59.0551; stroke-opacity:1; 
stroke-linecap:round; stroke-linejoin:round;">
<path d="M23622 77955
L23622 78742
" />
</g>
<g style="fill:#000000; fill-opacity:0.0; 
stroke:#000000; stroke-width:39.3701; stroke-opacity:1; 
stroke-linecap:round; stroke-linejoin:round;">
</g>
<g style="fill:#000000; fill-opacity:0.0; 
stroke:#000000; stroke-width:59.0551; stroke-opacity:1; 
stroke-linecap:round; stroke-linejoin:round;">
<path d="M43307 77955
L43307 78742
" />
</g>
<g style="fill:#000000; fill-opacity:0.0; 
stroke:#000000; stroke-width:39.3701; stroke-opacity:1; 
stroke-linecap:round; stroke-linejoin:round;">
</g>
<g style="fill:#000000; fill-opacity:0.0; 
stroke:#000000; stroke-width:59.0551; stroke-opacity:1; 
stroke-linecap:round; stroke-linejoin:round;">
<path d="M62992 77955
L62992 78742
" />
</g>
<g style="fill:#000000; fill-opacity:0.0; 
stroke:#000000; stroke-width:39.3701; stroke-opacity:1; 
stroke-linecap:round; stroke-linejoin:round;">
</g>
<g style="fill:#000000; fill-opacity:0.0; 
stroke:#000000; stroke-width:59.0551; stroke-opacity:1; 
stroke-linecap:round; stroke-linejoin:round;">
<path d="M82677 77955
L82677 78742
" />
</g>
<g style="fill:#000000; fill-opacity:0.0; 
stroke:#000000; stroke-width:39.3701; stroke-opacity:1; 
stroke-linecap:round; stroke-linejoin:round;">
</g>
<g style="fill:#000000; fill-opacity:0.0; 
stroke:#000000; stroke-width:59.0551; stroke-opacity:1; 
stroke-linecap:round; stroke-linejoin:round;">
<path d="M102362 77955
L102362 78742
" />
</g>
<g style="fill:#000000; fill-opacity:0.0; 
stroke:#000000; stroke-width:39.3701; stroke-opacity:1; 
stroke-linecap:round; stroke-linejoin:round;">
</g>
<g style="fill:#000000; fill-opacity:0.0; 
stroke:#000000; stroke-width:59.0551; stroke-opacity:1; 
stroke-linecap:round; stroke-linejoin:round;">
<text x="13779.5" y="78605.2"
textLength="546.494" font-size="682.415" lengthAdjust="spacingAndGlyphs"
text-anchor="start" opacity="0">1</text>
<path d="M14199 78580
L13906 78580
" />
<path d="M14052 78580
L14052 78069
L14004 78142
L13955 78190
L13906 78215
" />
</g>
<g style="fill:#000000; fill-opacity:0.0; 
stroke:#000000; stroke-width:39.3701; stroke-opacity:1; 
stroke-linecap:round; stroke-linejoin:round;">
</g>
<g style="fill:#000000; fill-opacity:0.0; 
stroke:#000000; stroke-width:59.0551; stroke-opacity:1; 
stroke-linecap:round; stroke-linejoin:round;">
<text x="33464.6" y="78605.2"
textLength="546.494" font-size="682.415" lengthAdjust="spacingAndGlyphs"
text-anchor="start" opacity="0">2</text>
<path d="M33591 78117
L33615 78093
L33664 78069
L33786 78069
L33835 78093
L33859 78117
L33884 78166
L33884 78215
L33859 78288
L33567 78580
L33884 78580
" />
</g>
<g style="fill:#000000; fill-opacity:0.0; 
stroke:#000000; stroke-width:39.3701; stroke-opacity:1; 
stroke-linecap:round; stroke-linejoin:round;">
</g>
<g style="fill:#000000; fill-opacity:0.0; 
stroke:#000000; stroke-width:59.0551; stroke-opacity:1; 
stroke-linecap:round; stroke-linejoin:round;">
<text x="53149.6" y="78605.2"
textLength="546.494" font-size="682.415" lengthAdjust="spacingAndGlyphs"
text-anchor="start" opacity="0">3</text>
<path d="M53252 78069
L53569 78069
L53398 78263
L53471 78263
L53520 78288
L53544 78312
L53569 78361
L53569 78483
L53544 78532
L53520 78556
L53471 78580
L53325 78580
L53276 78556
L53252 78532
" />
</g>
<g style="fill:#000000; fill-opacity:0.0; 
stroke:#000000; stroke-width:39.3701; stroke-opacity:1; 
stroke-linecap:round; stroke-linejoin:round;">
</g>
<g style="fill:#000000; fill-opacity:0.0; 
stroke:#000000; stroke-width:59.0551; stroke-opacity:1; 
stroke-linecap:round; stroke-linejoin:round;">
<text x="72834.6" y="78605.2"
textLength="546.494" font-size="682.415" lengthAdjust="spacingAndGlyphs"
text-anchor="start" opacity="0">4</text>
<path d="M73205 78239
L73205 78580
" />
<path d="M73083 78044
L72961 78410
L73278 78410
" />
</g>
<g style="fill:#000000; fill-opacity:0.0; 
stroke:#000000; stroke-width:39.3701; stroke-opacity:1; 
stroke-linecap:round; stroke-linejoin:round;">
</g>
<g style="fill:#000000; fill-opacity:0.0; 
stroke:#000000; stroke-width:59.0551; stroke-opacity:1; 
stroke-linecap:round; stroke-linejoin:round;">
<text x="92519.7" y="78605.2"
textLength="546.494" font-size="682.415" lengthAdjust="spacingAndGlyphs"
text-anchor="start" opacity="0">5</text>
<path d="M92914 78069
L92671 78069
L92646 78312
L92671 78288
L92719 78263
L92841 78263
L92890 78288
L92914 78312
L92939 78361
L92939 78483
L92914 78532
L92890 78556
L92841 78580
L92719 78580
L92671 78556
L92646 78532
" />
</g>
<g style="fill:#000000; fill-opacity:0.0; 
stroke:#000000; stroke-width:39.3701; stroke-opacity:1; 
stroke-linecap:round; stroke-linejoin:round;">
</g>
<g style="fill:#000000; fill-opacity:0.0; 
stroke:#000000; stroke-width:59.0551; stroke-opacity:1; 
stroke-linecap:round; stroke-linejoin:round;">
<text x="112205" y="78605.2"
textLength="546.494" font-size="682.415" lengthAdjust="spacingAndGlyphs"
text-anchor="start" opacity="0">6</text>
<path d="M112575 78069
L112477 78069
L112429 78093
L112404 78117
L112356 78190
L112331 78288
L112331 78483
L112356 78532
L112380 78556
L112429 78580
L112526 78580
L112575 78556
L112599 78532
L112624 78483
L112624 78361
L112599 78312
L112575 78288
L112526 78263
L112429 78263
L112380 78288
L112356 78312
L112331 78361
" />
</g>
<g style="fill:#000000; fill-opacity:0.0; 
stroke:#000000; stroke-width:39.3701; stroke-opacity:1; 
stroke-linecap:round; stroke-linejoin:round;">
</g>
<g style="fill:#000000; fill-opacity:0.0; 
stroke:#000000; stroke-width:59.0551; stroke-opacity:1; 
stroke-linecap:round; stroke-linejoin:round;">
<path d="M3937 23622
L4724 23622
" />
</g>
<g style="fill:#000000; fill-opacity:0.0; 
stroke:#000000; stroke-width:39.3701; stroke-opacity:1; 
stroke-linecap:round; stroke-linejoin:round;">
</g>
<g style="fill:#000000; fill-opacity:0.0; 
stroke:#000000; stroke-width:59.0551; stroke-opacity:1; 
stroke-linecap:round; stroke-linejoin:round;">
<path d="M3937 43307
L4724 43307
" />
</g>
<g style="fill:#000000; fill-opacity:0.0; 
stroke:#000000; stroke-width:39.3701; stroke-opacity:1; 
stroke-linecap:round; stroke-linejoin:round;">
</g>
<g style="fill:#000000; fill-opacity:0.0; 
stroke:#000000; stroke-width:59.0551; stroke-opacity:1; 
stroke-linecap:round; stroke-linejoin:round;">
<path d="M3937 62992
L4724 62992
" />
</g>
<g style="fill:#000000; fill-opacity:0.0; 
stroke:#000000; stroke-width:39.3701; stroke-opacity:1; 
stroke-linecap:round; stroke-linejoin:round;">
</g>
<g style="fill:#000000; fill-opacity:0.0; 
stroke:#000000; stroke-width:59.0551; stroke-opacity:1; 
stroke-linecap:round; stroke-linejoin:round;">
<text x="4330.71" y="14035.4"
textLength="497.75" font-size="682.415" lengthAdjust="spacingAndGlyphs"
text-anchor="middle" opacity="0">A</text>
<path d="M4208 13864
L4452 13864
" />
<path d="M4160 14011
L4330 13499
L4501 14011
" />
</g>
<g style="fill:#000000; fill-opacity:0.0; 
stroke:#000000; stroke-width:39.3701; stroke-opacity:1; 
stroke-linecap:round; stroke-linejoin:round;">
</g>
<g style="fill:#000000; fill-opacity:0.0; 
stroke:#000000; stroke-width:59.0551; stroke-opacity:1; 
stroke-linecap:round; stroke-linejoin:round;">
<text x="4330.71" y="33720.5"
textLength="570.866" font-size="682.415" lengthAdjust="spacingAndGlyphs"
text-anchor="middle" opacity="0">B</text>
<path d="M4367 33428
L4440 33452
L4464 33476
L4489 33525
L4489 33598
L4464 33647
L4440 33671
L4391 33696
L4196 33696
L4196 33184
L4367 33184
L4416 33208
L4440 33233
L4464 33281
L4464 33330
L4440 33379
L4416 33403
L4367 33428
L4196 33428
" />
</g>
<g style="fill:#000000; fill-opacity:0.0; 
stroke:#000000; stroke-width:39.3701; stroke-opacity:1; 
stroke-linecap:round; stroke-linejoin:round;">
</g>
<g style="fill:#000000; fill-opacity:0.0; 
stroke:#000000; stroke-width:59.0551; stroke-opacity:1; 
stroke-linecap:round; stroke-linejoin:round;">
<text x="4330.71" y="53405.5"
textLength="570.866" font-size="682.415" lengthAdjust="spacingAndGlyphs"
text-anchor="middle" opacity="0">C</text>
<path d="M4489 53332
L4464 53356
L4391 53381
L4342 53381
L4269 53356
L4221 53308
L4196 53259
L4172 53161
L4172 53088
L4196 52991
L4221 52942
L4269 52893
L4342 52869
L4391 52869
L4464 52893
L4489 52918
" />
</g>
<g style="fill:#000000; fill-opacity:0.0; 
stroke:#000000; stroke-width:39.3701; stroke-opacity:1; 
stroke-linecap:round; stroke-linejoin:round;">
</g>
<g style="fill:#000000; fill-opacity:0.0; 
stroke:#000000; stroke-width:59.0551; stroke-opacity:1; 
stroke-linecap:round; stroke-linejoin:round;">
<text x="4330.71" y="73090.6"
textLength="570.866" font-size="682.415" lengthAdjust="spacingAndGlyphs"
text-anchor="middle" opacity="0">D</text>
<path d="M4196 73066
L4196 72554
L4318 72554
L4391 72578
L4440 72627
L4464 72676
L4489 72773
L4489 72846
L4464 72944
L4440 72993
L4391 73041
L4318 73066
L4196 73066
" />
</g>
<g style="fill:#000000; fill-opacity:0.0; 
stroke:#000000; stroke-width:39.3701; stroke-opacity:1; 
stroke-linecap:round; stroke-linejoin:round;">
</g>
<g style="fill:#000000; fill-opacity:0.0; 
stroke:#000000; stroke-width:59.0551; stroke-opacity:1; 
stroke-linecap:round; stroke-linejoin:round;">
<path d="M112992 23622
L112205 23622
" />
</g>
<g style="fill:#000000; fill-opacity:0.0; 
stroke:#000000; stroke-width:39.3701; stroke-opacity:1; 
stroke-linecap:round; stroke-linejoin:round;">
</g>
<g style="fill:#000000; fill-opacity:0.0; 
stroke:#000000; stroke-width:59.0551; stroke-opacity:1; 
stroke-linecap:round; stroke-linejoin:round;">
<path d="M112992 43307
L112205 43307
" />
</g>
<g style="fill:#000000; fill-opacity:0.0; 
stroke:#000000; stroke-width:39.3701; stroke-opacity:1; 
stroke-linecap:round; stroke-linejoin:round;">
</g>
<g style="fill:#000000; fill-opacity:0.0; 
stroke:#000000; stroke-width:59.0551; stroke-opacity:1; 
stroke-linecap:round; stroke-linejoin:round;">
<path d="M112992 62992
L112205 62992
" />
</g>
<g style="fill:#000000; fill-opacity:0.0; 
stroke:#000000; stroke-width:39.3701; stroke-opacity:1; 
stroke-linecap:round; stroke-linejoin:round;">
</g>
<g style="fill:#000000; fill-opacity:0.0; 
stroke:#000000; stroke-width:59.0551; stroke-opacity:1; 
stroke-linecap:round; stroke-linejoin:round;">
<text x="112599" y="14035.4"
textLength="497.75" font-size="682.415" lengthAdjust="spacingAndGlyphs"
text-anchor="middle" opacity="0">A</text>
<path d="M112477 13864
L112721 13864
" />
<path d="M112428 14011
L112599 13499
L112769 14011
" />
</g>
<g style="fill:#000000; fill-opacity:0.0; 
stroke:#000000; stroke-width:39.3701; stroke-opacity:1; 
stroke-linecap:round; stroke-linejoin:round;">
</g>
<g style="fill:#000000; fill-opacity:0.0; 
stroke:#000000; stroke-width:59.0551; stroke-opacity:1; 
stroke-linecap:round; stroke-linejoin:round;">
<text x="112599" y="33720.5"
textLength="570.866" font-size="682.415" lengthAdjust="spacingAndGlyphs"
text-anchor="middle" opacity="0">B</text>
<path d="M112635 33428
L112708 33452
L112733 33476
L112757 33525
L112757 33598
L112733 33647
L112708 33671
L112660 33696
L112465 33696
L112465 33184
L112635 33184
L112684 33208
L112708 33233
L112733 33281
L112733 33330
L112708 33379
L112684 33403
L112635 33428
L112465 33428
" />
</g>
<g style="fill:#000000; fill-opacity:0.0; 
stroke:#000000; stroke-width:39.3701; stroke-opacity:1; 
stroke-linecap:round; stroke-linejoin:round;">
</g>
<g style="fill:#000000; fill-opacity:0.0; 
stroke:#000000; stroke-width:59.0551; stroke-opacity:1; 
stroke-linecap:round; stroke-linejoin:round;">
<text x="112599" y="53405.5"
textLength="570.866" font-size="682.415" lengthAdjust="spacingAndGlyphs"
text-anchor="middle" opacity="0">C</text>
<path d="M112757 53332
L112733 53356
L112660 53381
L112611 53381
L112538 53356
L112489 53308
L112465 53259
L112440 53161
L112440 53088
L112465 52991
L112489 52942
L112538 52893
L112611 52869
L112660 52869
L112733 52893
L112757 52918
" />
</g>
<g style="fill:#000000; fill-opacity:0.0; 
stroke:#000000; stroke-width:39.3701; stroke-opacity:1; 
stroke-linecap:round; stroke-linejoin:round;">
</g>
<g style="fill:#000000; fill-opacity:0.0; 
stroke:#000000; stroke-width:59.0551; stroke-opacity:1; 
stroke-linecap:round; stroke-linejoin:round;">
<text x="112599" y="73090.6"
textLength="570.866" font-size="682.415" lengthAdjust="spacingAndGlyphs"
text-anchor="middle" opacity="0">D</text>
<path d="M112465 73066
L112465 72554
L112587 72554
L112660 72578
L112708 72627
L112733 72676
L112757 72773
L112757 72846
L112733 72944
L112708 72993
L112660 73041
L112587 73066
L112465 73066
" />
</g>
<g style="fill:#000000; fill-opacity:0.0; 
stroke:#000000; stroke-width:39.3701; stroke-opacity:1; 
stroke-linecap:round; stroke-linejoin:round;">
</g>
<g style="fill:#000000; fill-opacity:0.0; 
stroke:#000000; stroke-width:59.0551; stroke-opacity:1; 
stroke-linecap:round; stroke-linejoin:round;">
<text x="78741" y="76321.7"
textLength="2758.72" font-size="787.402" lengthAdjust="spacingAndGlyphs"
text-anchor="start" opacity="0">Date: </text>
<path d="M78911 76293
L78911 75703
L79051 75703
L79136 75731
L79192 75787
L79220 75843
L79248 75956
L79248 76040
L79220 76153
L79192 76209
L79136 76265
L79051 76293
L78911 76293
" />
<path d="M79754 76293
L79754 75984
L79726 75928
L79670 75899
L79557 75899
L79501 75928
" />
<path d="M79754 76265
L79698 76293
L79557 76293
L79501 76265
L79473 76209
L79473 76153
L79501 76096
L79557 76068
L79698 76068
L79754 76040
" />
<path d="M79951 75899
L80176 75899
" />
<path d="M80036 75703
L80036 76209
L80064 76265
L80120 76293
L80176 76293
" />
<path d="M80598 76265
L80542 76293
L80429 76293
L80373 76265
L80345 76209
L80345 75984
L80373 75928
L80429 75899
L80542 75899
L80598 75928
L80626 75984
L80626 76040
L80345 76096
" />
<path d="M80879 76237
L80907 76265
L80879 76293
L80851 76265
L80879 76237
L80879 76293
" />
<path d="M80879 75928
L80907 75956
L80879 75984
L80851 75956
L80879 75928
L80879 75984
" />
</g>
<g style="fill:#000000; fill-opacity:0.0; 
stroke:#000000; stroke-width:39.3701; stroke-opacity:1; 
stroke-linecap:round; stroke-linejoin:round;">
</g>
<g style="fill:#000000; fill-opacity:0.0; 
stroke:#000000; stroke-width:59.0551; stroke-opacity:1; 
stroke-linecap:round; stroke-linejoin:round;">
<path d="M69685 76577
L112205 76577
" />
</g>
<g style="fill:#000000; fill-opacity:0.0; 
stroke:#000000; stroke-width:39.3701; stroke-opacity:1; 
stroke-linecap:round; stroke-linejoin:round;">
</g>
<g style="fill:#000000; fill-opacity:0.0; 
stroke:#000000; stroke-width:59.0551; stroke-opacity:1; 
stroke-linecap:round; stroke-linejoin:round;">
<text x="70079.6" y="77424.1"
textLength="14091.7" font-size="787.402" lengthAdjust="spacingAndGlyphs"
text-anchor="start" opacity="0">KiCad E.D.A.  kicad (5.1.10)-1</text>
<path d="M70249 77395
L70249 76805
" />
<path d="M70587 77395
L70334 77058
" />
<path d="M70587 76805
L70249 77142
" />
<path d="M70840 77395
L70840 77002
" />
<path d="M70840 76805
L70812 76833
L70840 76861
L70868 76833
L70840 76805
L70840 76861
" />
<path d="M71458 77339
L71430 77367
L71346 77395
L71290 77395
L71205 77367
L71149 77311
L71121 77255
L71093 77142
L71093 77058
L71121 76946
L71149 76889
L71205 76833
L71290 76805
L71346 76805
L71430 76833
L71458 76861
" />
<path d="M71965 77395
L71965 77086
L71937 77030
L71880 77002
L71768 77002
L71712 77030
" />
<path d="M71965 77367
L71908 77395
L71768 77395
L71712 77367
L71683 77311
L71683 77255
L71712 77199
L71768 77171
L71908 77171
L71965 77142
" />
<path d="M72499 77395
L72499 76805
" />
<path d="M72499 77367
L72443 77395
L72330 77395
L72274 77367
L72246 77339
L72218 77283
L72218 77114
L72246 77058
L72274 77030
L72330 77002
L72443 77002
L72499 77030
" />
<path d="M73230 77086
L73427 77086
" />
<path d="M73511 77395
L73230 77395
L73230 76805
L73511 76805
" />
<path d="M73764 77339
L73793 77367
L73764 77395
L73736 77367
L73764 77339
L73764 77395
" />
<path d="M74046 77395
L74046 76805
L74186 76805
L74271 76833
L74327 76889
L74355 76946
L74383 77058
L74383 77142
L74355 77255
L74327 77311
L74271 77367
L74186 77395
L74046 77395
" />
<path d="M74636 77339
L74664 77367
L74636 77395
L74608 77367
L74636 77339
L74636 77395
" />
<path d="M74889 77227
L75171 77227
" />
<path d="M74833 77395
L75030 76805
L75227 77395
" />
<path d="M75424 77339
L75452 77367
L75424 77395
L75395 77367
L75424 77339
L75424 77395
" />
<path d="M76605 77395
L76605 76805
" />
<path d="M76661 77171
L76830 77395
" />
<path d="M76830 77002
L76605 77227
" />
<path d="M77083 77395
L77083 77002
" />
<path d="M77083 76805
L77055 76833
L77083 76861
L77111 76833
L77083 76805
L77083 76861
" />
<path d="M77617 77367
L77561 77395
L77448 77395
L77392 77367
L77364 77339
L77336 77283
L77336 77114
L77364 77058
L77392 77030
L77448 77002
L77561 77002
L77617 77030
" />
<path d="M78123 77395
L78123 77086
L78095 77030
L78039 77002
L77926 77002
L77870 77030
" />
<path d="M78123 77367
L78067 77395
L77926 77395
L77870 77367
L77842 77311
L77842 77255
L77870 77199
L77926 77171
L78067 77171
L78123 77142
" />
<path d="M78658 77395
L78658 76805
" />
<path d="M78658 77367
L78601 77395
L78489 77395
L78433 77367
L78404 77339
L78376 77283
L78376 77114
L78404 77058
L78433 77030
L78489 77002
L78601 77002
L78658 77030
" />
<path d="M79557 77620
L79529 77592
L79473 77508
L79445 77452
L79417 77367
L79389 77227
L79389 77114
L79417 76974
L79445 76889
L79473 76833
L79529 76749
L79557 76721
" />
<path d="M80064 76805
L79782 76805
L79754 77086
L79782 77058
L79839 77030
L79979 77030
L80036 77058
L80064 77086
L80092 77142
L80092 77283
L80064 77339
L80036 77367
L79979 77395
L79839 77395
L79782 77367
L79754 77339
" />
<path d="M80345 77339
L80373 77367
L80345 77395
L80317 77367
L80345 77339
L80345 77395
" />
<path d="M80935 77395
L80598 77395
" />
<path d="M80767 77395
L80767 76805
L80710 76889
L80654 76946
L80598 76974
" />
<path d="M81188 77339
L81217 77367
L81188 77395
L81160 77367
L81188 77339
L81188 77395
" />
<path d="M81779 77395
L81442 77395
" />
<path d="M81610 77395
L81610 76805
L81554 76889
L81498 76946
L81442 76974
" />
<path d="M82145 76805
L82201 76805
L82257 76833
L82285 76861
L82313 76917
L82341 77030
L82341 77171
L82313 77283
L82285 77339
L82257 77367
L82201 77395
L82145 77395
L82088 77367
L82060 77339
L82032 77283
L82004 77171
L82004 77030
L82032 76917
L82060 76861
L82088 76833
L82145 76805
" />
<path d="M82538 77620
L82566 77592
L82623 77508
L82651 77452
L82679 77367
L82707 77227
L82707 77114
L82679 76974
L82651 76889
L82623 76833
L82566 76749
L82538 76721
" />
<path d="M82988 77171
L83438 77171
" />
<path d="M84029 77395
L83691 77395
" />
<path d="M83860 77395
L83860 76805
L83804 76889
L83748 76946
L83691 76974
" />
</g>
<g style="fill:#000000; fill-opacity:0.0; 
stroke:#000000; stroke-width:39.3701; stroke-opacity:1; 
stroke-linecap:round; stroke-linejoin:round;">
</g>
<g style="fill:#000000; fill-opacity:0.0; 
stroke:#000000; stroke-width:59.0551; stroke-opacity:1; 
stroke-linecap:round; stroke-linejoin:round;">
<path d="M69685 75396
L112205 75396
" />
</g>
<g style="fill:#000000; fill-opacity:0.0; 
stroke:#000000; stroke-width:39.3701; stroke-opacity:1; 
stroke-linecap:round; stroke-linejoin:round;">
</g>
<g style="fill:#000000; fill-opacity:0.0; 
stroke:#000000; stroke-width:118.11; stroke-opacity:1; 
stroke-linecap:round; stroke-linejoin:round;">
<text x="103544" y="76321.7"
textLength="2336.9" font-size="787.402" lengthAdjust="spacingAndGlyphs"
text-anchor="start" opacity="0">Rev: </text>
<path d="M104099 76293
L103902 76012
" />
<path d="M103761 76293
L103761 75703
L103986 75703
L104042 75731
L104070 75759
L104099 75815
L104099 75899
L104070 75956
L104042 75984
L103986 76012
L103761 76012
" />
<path d="M104577 76265
L104520 76293
L104408 76293
L104352 76265
L104323 76209
L104323 75984
L104352 75928
L104408 75899
L104520 75899
L104577 75928
L104605 75984
L104605 76040
L104323 76096
" />
<path d="M104802 75899
L104942 76293
L105083 75899
" />
<path d="M105308 76237
L105336 76265
L105308 76293
L105280 76265
L105308 76237
L105308 76293
" />
<path d="M105308 75928
L105336 75956
L105308 75984
L105280 75956
L105308 75928
L105308 75984
" />
</g>
<g style="fill:#000000; fill-opacity:0.0; 
stroke:#000000; stroke-width:39.3701; stroke-opacity:1; 
stroke-linecap:round; stroke-linejoin:round;">
</g>
<g style="fill:#000000; fill-opacity:0.0; 
stroke:#000000; stroke-width:59.0551; stroke-opacity:1; 
stroke-linecap:round; stroke-linejoin:round;">
<text x="70079.6" y="76321.7"
textLength="3781.21" font-size="787.402" lengthAdjust="spacingAndGlyphs"
text-anchor="start" opacity="0">Size: A4</text>
<path d="M70221 76265
L70305 76293
L70446 76293
L70502 76265
L70530 76237
L70559 76181
L70559 76124
L70530 76068
L70502 76040
L70446 76012
L70334 75984
L70277 75956
L70249 75928
L70221 75871
L70221 75815
L70249 75759
L70277 75731
L70334 75703
L70474 75703
L70559 75731
" />
<path d="M70812 76293
L70812 75899
" />
<path d="M70812 75703
L70784 75731
L70812 75759
L70840 75731
L70812 75703
L70812 75759
" />
<path d="M71037 75899
L71346 75899
L71037 76293
L71346 76293
" />
<path d="M71796 76265
L71740 76293
L71627 76293
L71571 76265
L71543 76209
L71543 75984
L71571 75928
L71627 75899
L71740 75899
L71796 75928
L71824 75984
L71824 76040
L71543 76096
" />
<path d="M72077 76237
L72105 76265
L72077 76293
L72049 76265
L72077 76237
L72077 76293
" />
<path d="M72077 75928
L72105 75956
L72077 75984
L72049 75956
L72077 75928
L72077 75984
" />
<path d="M72780 76124
L73061 76124
" />
<path d="M72724 76293
L72921 75703
L73118 76293
" />
<path d="M73568 75899
L73568 76293
" />
<path d="M73427 75674
L73286 76096
L73652 76096
" />
</g>
<g style="fill:#000000; fill-opacity:0.0; 
stroke:#000000; stroke-width:39.3701; stroke-opacity:1; 
stroke-linecap:round; stroke-linejoin:round;">
</g>
<g style="fill:#000000; fill-opacity:0.0; 
stroke:#000000; stroke-width:59.0551; stroke-opacity:1; 
stroke-linecap:round; stroke-linejoin:round;">
<text x="103544" y="77424.1"
textLength="3349.27" font-size="787.402" lengthAdjust="spacingAndGlyphs"
text-anchor="start" opacity="0">Id: 1/1</text>
<path d="M103714 77395
L103714 76805
" />
<path d="M104248 77395
L104248 76805
" />
<path d="M104248 77367
L104192 77395
L104079 77395
L104023 77367
L103995 77339
L103967 77283
L103967 77114
L103995 77058
L104023 77030
L104079 77002
L104192 77002
L104248 77030
" />
<path d="M104529 77339
L104557 77367
L104529 77395
L104501 77367
L104529 77339
L104529 77395
" />
<path d="M104529 77030
L104557 77058
L104529 77086
L104501 77058
L104529 77030
L104529 77086
" />
<path d="M105570 77395
L105232 77395
" />
<path d="M105401 77395
L105401 76805
L105345 76889
L105289 76946
L105232 76974
" />
<path d="M106245 76777
L105739 77536
" />
<path d="M106751 77395
L106413 77395
" />
<path d="M106582 77395
L106582 76805
L106526 76889
L106470 76946
L106413 76974
" />
</g>
<g style="fill:#000000; fill-opacity:0.0; 
stroke:#000000; stroke-width:39.3701; stroke-opacity:1; 
stroke-linecap:round; stroke-linejoin:round;">
</g>
<g style="fill:#000000; fill-opacity:0.0; 
stroke:#000000; stroke-width:59.0551; stroke-opacity:1; 
stroke-linecap:round; stroke-linejoin:round;">
<path d="M69685 73821
L112205 73821
" />
</g>
<g style="fill:#000000; fill-opacity:0.0; 
stroke:#000000; stroke-width:39.3701; stroke-opacity:1; 
stroke-linecap:round; stroke-linejoin:round;">
</g>
<g style="fill:#000000; fill-opacity:0.0; 
stroke:#000000; stroke-width:157.48; stroke-opacity:1; 
stroke-linecap:round; stroke-linejoin:round;">
<text x="70079.6" y="74924.1"
textLength="3701.14" font-size="1049.87" lengthAdjust="spacingAndGlyphs"
text-anchor="start" opacity="0">Title: </text>
<path d="M70360 74099
L70810 74099
" />
<path d="M70486 74886
L70585 74099
" />
<path d="M70974 74886
L71039 74361
" />
<path d="M71072 74099
L71030 74136
L71063 74174
L71105 74136
L71072 74099
L71063 74174
" />
<path d="M71302 74361
L71602 74361
" />
<path d="M71447 74099
L71363 74774
L71391 74849
L71461 74886
L71536 74886
" />
<path d="M71911 74886
L71841 74849
L71813 74774
L71897 74099
" />
<path d="M72516 74849
L72436 74886
L72286 74886
L72216 74849
L72187 74774
L72225 74474
L72272 74399
L72352 74361
L72501 74361
L72572 74399
L72600 74474
L72591 74549
L72206 74624
" />
<path d="M72895 74811
L72928 74849
L72886 74886
L72853 74849
L72895 74811
L72886 74886
" />
<path d="M72947 74399
L72980 74436
L72937 74474
L72905 74436
L72947 74399
L72937 74474
" />
</g>
<g style="fill:#000000; fill-opacity:0.0; 
stroke:#000000; stroke-width:39.3701; stroke-opacity:1; 
stroke-linecap:round; stroke-linejoin:round;">
</g>
<g style="fill:#000000; fill-opacity:0.0; 
stroke:#000000; stroke-width:59.0551; stroke-opacity:1; 
stroke-linecap:round; stroke-linejoin:round;">
<text x="70079.6" y="73408.3"
textLength="14153" font-size="787.402" lengthAdjust="spacingAndGlyphs"
text-anchor="start" opacity="0">File: SolarCarDisplay.kicad_pcb</text>
<path d="M70446 73070
L70249 73070
" />
<path d="M70249 73380
L70249 72789
L70530 72789
" />
<path d="M70755 73380
L70755 72986
" />
<path d="M70755 72789
L70727 72817
L70755 72845
L70784 72817
L70755 72789
L70755 72845
" />
<path d="M71121 73380
L71065 73352
L71037 73295
L71037 72789
" />
<path d="M71571 73352
L71515 73380
L71402 73380
L71346 73352
L71318 73295
L71318 73070
L71346 73014
L71402 72986
L71515 72986
L71571 73014
L71599 73070
L71599 73127
L71318 73183
" />
<path d="M71852 73323
L71880 73352
L71852 73380
L71824 73352
L71852 73323
L71852 73380
" />
<path d="M71852 73014
L71880 73042
L71852 73070
L71824 73042
L71852 73014
L71852 73070
" />
<path d="M72555 73352
L72640 73380
L72780 73380
L72836 73352
L72865 73323
L72893 73267
L72893 73211
L72865 73155
L72836 73127
L72780 73099
L72668 73070
L72611 73042
L72583 73014
L72555 72958
L72555 72902
L72583 72845
L72611 72817
L72668 72789
L72808 72789
L72893 72817
" />
<path d="M73230 73380
L73174 73352
L73146 73323
L73118 73267
L73118 73099
L73146 73042
L73174 73014
L73230 72986
L73314 72986
L73371 73014
L73399 73042
L73427 73099
L73427 73267
L73399 73323
L73371 73352
L73314 73380
L73230 73380
" />
<path d="M73764 73380
L73708 73352
L73680 73295
L73680 72789
" />
<path d="M74242 73380
L74242 73070
L74214 73014
L74158 72986
L74046 72986
L73989 73014
" />
<path d="M74242 73352
L74186 73380
L74046 73380
L73989 73352
L73961 73295
L73961 73239
L73989 73183
L74046 73155
L74186 73155
L74242 73127
" />
<path d="M74524 73380
L74524 72986
" />
<path d="M74524 73099
L74552 73042
L74580 73014
L74636 72986
L74692 72986
" />
<path d="M75227 73323
L75199 73352
L75114 73380
L75058 73380
L74974 73352
L74917 73295
L74889 73239
L74861 73127
L74861 73042
L74889 72930
L74917 72874
L74974 72817
L75058 72789
L75114 72789
L75199 72817
L75227 72845
" />
<path d="M75733 73380
L75733 73070
L75705 73014
L75649 72986
L75536 72986
L75480 73014
" />
<path d="M75733 73352
L75677 73380
L75536 73380
L75480 73352
L75452 73295
L75452 73239
L75480 73183
L75536 73155
L75677 73155
L75733 73127
" />
<path d="M76014 73380
L76014 72986
" />
<path d="M76014 73099
L76042 73042
L76070 73014
L76127 72986
L76183 72986
" />
<path d="M76380 73380
L76380 72789
L76520 72789
L76605 72817
L76661 72874
L76689 72930
L76717 73042
L76717 73127
L76689 73239
L76661 73295
L76605 73352
L76520 73380
L76380 73380
" />
<path d="M76970 73380
L76970 72986
" />
<path d="M76970 72789
L76942 72817
L76970 72845
L76998 72817
L76970 72789
L76970 72845
" />
<path d="M77223 73352
L77280 73380
L77392 73380
L77448 73352
L77476 73295
L77476 73267
L77448 73211
L77392 73183
L77308 73183
L77251 73155
L77223 73099
L77223 73070
L77251 73014
L77308 72986
L77392 72986
L77448 73014
" />
<path d="M77730 72986
L77730 73577
" />
<path d="M77730 73014
L77786 72986
L77898 72986
L77955 73014
L77983 73042
L78011 73099
L78011 73267
L77983 73323
L77955 73352
L77898 73380
L77786 73380
L77730 73352
" />
<path d="M78348 73380
L78292 73352
L78264 73295
L78264 72789
" />
<path d="M78826 73380
L78826 73070
L78798 73014
L78742 72986
L78629 72986
L78573 73014
" />
<path d="M78826 73352
L78770 73380
L78629 73380
L78573 73352
L78545 73295
L78545 73239
L78573 73183
L78629 73155
L78770 73155
L78826 73127
" />
<path d="M79051 72986
L79192 73380
" />
<path d="M79332 72986
L79192 73380
L79136 73520
L79108 73548
L79051 73577
" />
<path d="M79557 73323
L79586 73352
L79557 73380
L79529 73352
L79557 73323
L79557 73380
" />
<path d="M79839 73380
L79839 72789
" />
<path d="M79895 73155
L80064 73380
" />
<path d="M80064 72986
L79839 73211
" />
<path d="M80317 73380
L80317 72986
" />
<path d="M80317 72789
L80289 72817
L80317 72845
L80345 72817
L80317 72789
L80317 72845
" />
<path d="M80851 73352
L80795 73380
L80682 73380
L80626 73352
L80598 73323
L80570 73267
L80570 73099
L80598 73042
L80626 73014
L80682 72986
L80795 72986
L80851 73014
" />
<path d="M81357 73380
L81357 73070
L81329 73014
L81273 72986
L81160 72986
L81104 73014
" />
<path d="M81357 73352
L81301 73380
L81160 73380
L81104 73352
L81076 73295
L81076 73239
L81104 73183
L81160 73155
L81301 73155
L81357 73127
" />
<path d="M81892 73380
L81892 72789
" />
<path d="M81892 73352
L81835 73380
L81723 73380
L81667 73352
L81638 73323
L81610 73267
L81610 73099
L81638 73042
L81667 73014
L81723 72986
L81835 72986
L81892 73014
" />
<path d="M82032 73436
L82482 73436
" />
<path d="M82623 72986
L82623 73577
" />
<path d="M82623 73014
L82679 72986
L82791 72986
L82848 73014
L82876 73042
L82904 73099
L82904 73267
L82876 73323
L82848 73352
L82791 73380
L82679 73380
L82623 73352
" />
<path d="M83410 73352
L83354 73380
L83241 73380
L83185 73352
L83157 73323
L83129 73267
L83129 73099
L83157 73042
L83185 73014
L83241 72986
L83354 72986
L83410 73014
" />
<path d="M83663 73380
L83663 72789
" />
<path d="M83663 73014
L83719 72986
L83832 72986
L83888 73014
L83916 73042
L83944 73099
L83944 73267
L83916 73323
L83888 73352
L83832 73380
L83719 73380
L83663 73352
" />
</g>
<g style="fill:#000000; fill-opacity:0.0; 
stroke:#000000; stroke-width:39.3701; stroke-opacity:1; 
stroke-linecap:round; stroke-linejoin:round;">
</g>
<g style="fill:#000000; fill-opacity:0.0; 
stroke:#000000; stroke-width:59.0551; stroke-opacity:1; 
stroke-linecap:round; stroke-linejoin:round;">
<path d="M69685 71459
L112205 71459
" />
</g>
<g style="fill:#000000; fill-opacity:0.0; 
stroke:#000000; stroke-width:39.3701; stroke-opacity:1; 
stroke-linecap:round; stroke-linejoin:round;">
</g>
<g style="fill:#000000; fill-opacity:0.0; 
stroke:#000000; stroke-width:59.0551; stroke-opacity:1; 
stroke-linecap:round; stroke-linejoin:round;">
<text x="70079.6" y="72345.4"
textLength="3236.78" font-size="787.402" lengthAdjust="spacingAndGlyphs"
text-anchor="start" opacity="0">Sheet: </text>
<path d="M70221 72289
L70305 72317
L70446 72317
L70502 72289
L70530 72260
L70559 72204
L70559 72148
L70530 72092
L70502 72064
L70446 72036
L70334 72007
L70277 71979
L70249 71951
L70221 71895
L70221 71839
L70249 71782
L70277 71754
L70334 71726
L70474 71726
L70559 71754
" />
<path d="M70812 72317
L70812 71726
" />
<path d="M71065 72317
L71065 72007
L71037 71951
L70980 71923
L70896 71923
L70840 71951
L70812 71979
" />
<path d="M71571 72289
L71515 72317
L71402 72317
L71346 72289
L71318 72232
L71318 72007
L71346 71951
L71402 71923
L71515 71923
L71571 71951
L71599 72007
L71599 72064
L71318 72120
" />
<path d="M72077 72289
L72021 72317
L71908 72317
L71852 72289
L71824 72232
L71824 72007
L71852 71951
L71908 71923
L72021 71923
L72077 71951
L72105 72007
L72105 72064
L71824 72120
" />
<path d="M72274 71923
L72499 71923
" />
<path d="M72358 71726
L72358 72232
L72386 72289
L72443 72317
L72499 72317
" />
<path d="M72696 72260
L72724 72289
L72696 72317
L72668 72289
L72696 72260
L72696 72317
" />
<path d="M72696 71951
L72724 71979
L72696 72007
L72668 71979
L72696 71951
L72696 72007
" />
</g>
<g style="fill:#000000; fill-opacity:0.0; 
stroke:#000000; stroke-width:39.3701; stroke-opacity:1; 
stroke-linecap:round; stroke-linejoin:round;">
</g>
<g style="fill:#000000; fill-opacity:0.0; 
stroke:#000000; stroke-width:59.0551; stroke-opacity:1; 
stroke-linecap:round; stroke-linejoin:round;">
<path d="M77559 75396
L77559 76577
" />
</g>
<g style="fill:#000000; fill-opacity:0.0; 
stroke:#000000; stroke-width:39.3701; stroke-opacity:1; 
stroke-linecap:round; stroke-linejoin:round;">
</g>
<g style="fill:#000000; fill-opacity:0.0; 
stroke:#000000; stroke-width:59.0551; stroke-opacity:1; 
stroke-linecap:round; stroke-linejoin:round;">
<path d="M102756 75396
L102756 77955
" />
<g >
</g>
<g >
</g>
<g >
</g>
<g >
</g>
<g >
</g>
<g >
</g>
<g >
</g>
<g >
</g>
<g >
</g>
<g >
</g>
<g >
</g>
<g >
</g>
<g style="fill:#840000; fill-opacity:0.0; 
stroke:#840000; stroke-width:59.0551; stroke-opacity:1; 
stroke-linecap:round; stroke-linejoin:round;">
</g>
<g style="fill:#840000; fill-opacity:0.0; 
stroke:#840000; stroke-width:0; stroke-opacity:1; 
stroke-linecap:round; stroke-linejoin:round;">
</g>
<g style="fill:#840000; fill-opacity:1.0; 
stroke:#840000; stroke-width:0; stroke-opacity:1; 
stroke-linecap:round; stroke-linejoin:round;">
<path style="fill:#840000; fill-opacity:1.0; 
stroke:#840000; stroke-width:0; stroke-opacity:1; 
stroke-linecap:round; stroke-linejoin:round;fill-rule:evenodd;"
d="M 91286.8,18395.1
91286.8,19379.3
90302.5,19379.3
90302.5,18395.1
Z" /> 
<path style="fill:#840000; fill-opacity:1.0; 
stroke:#840000; stroke-width:0; stroke-opacity:1; 
stroke-linecap:round; stroke-linejoin:round;fill-rule:evenodd;"
d="M 95617.5,18395.1
95617.5,19379.3
94633.2,19379.3
94633.2,18395.1
Z" /> 
<path style="fill:#840000; fill-opacity:1.0; 
stroke:#840000; stroke-width:0; stroke-opacity:1; 
stroke-linecap:round; stroke-linejoin:round;fill-rule:evenodd;"
d="M 94633.2,14654.9
94633.2,13670.7
95617.5,13670.7
95617.5,14654.9
Z" /> 
<path style="fill:#840000; fill-opacity:1.0; 
stroke:#840000; stroke-width:0; stroke-opacity:1; 
stroke-linecap:round; stroke-linejoin:round;fill-rule:evenodd;"
d="M 90302.5,14654.9
90302.5,13670.7
91286.8,13670.7
91286.8,14654.9
Z" /> 
</g>
<g >
</g>
<g >
</g>
<g >
</g>
<g style="fill:#840000; fill-opacity:1.0; 
stroke:#840000; stroke-width:0; stroke-opacity:1; 
stroke-linecap:round; stroke-linejoin:round;">
<path style="fill:#840000; fill-opacity:1.0; 
stroke:#840000; stroke-width:0; stroke-opacity:1; 
stroke-linecap:round; stroke-linejoin:round;fill-rule:evenodd;"
d="M 96660.6,14129.3
96670.1,14130.7
96679.5,14133.1
96688.6,14136.4
96697.3,14140.5
96705.6,14145.4
96713.3,14151.2
96720.5,14157.7
96727,14164.8
96732.7,14172.6
96737.7,14180.9
96741.8,14189.6
96745.1,14198.7
96747.4,14208.1
96748.9,14217.6
96749.3,14227.3
96749.3,14552.1
96748.9,14561.7
96747.4,14571.3
96745.1,14580.7
96741.8,14589.8
96737.7,14598.5
96732.7,14606.8
96727,14614.5
96720.5,14621.7
96713.3,14628.2
96705.6,14633.9
96697.3,14638.9
96688.6,14643
96679.5,14646.3
96670.1,14648.6
96660.6,14650
96650.9,14650.5
96139.1,14650.5
96129.4,14650
96119.9,14648.6
96110.5,14646.3
96101.4,14643
96092.7,14638.9
96084.4,14633.9
96076.7,14628.2
96069.5,14621.7
96063,14614.5
96057.3,14606.8
96052.3,14598.5
96048.2,14589.8
96044.9,14580.7
96042.6,14571.3
96041.1,14561.7
96040.7,14552.1
96040.7,14227.3
96041.1,14217.6
96042.6,14208.1
96044.9,14198.7
96048.2,14189.6
96052.3,14180.9
96057.3,14172.6
96063,14164.8
96069.5,14157.7
96076.7,14151.2
96084.4,14145.4
96092.7,14140.5
96101.4,14136.4
96110.5,14133.1
96119.9,14130.7
96129.4,14129.3
96139.1,14128.9
96650.9,14128.9
Z" /> 
<path style="fill:#840000; fill-opacity:1.0; 
stroke:#840000; stroke-width:0; stroke-opacity:1; 
stroke-linecap:round; stroke-linejoin:round;fill-rule:evenodd;"
d="M 96660.6,15359.6
96670.1,15361.1
96679.5,15363.4
96688.6,15366.7
96697.3,15370.8
96705.6,15375.8
96713.3,15381.5
96720.5,15388
96727,15395.2
96732.7,15402.9
96737.7,15411.2
96741.8,15419.9
96745.1,15429
96747.4,15438.4
96748.9,15448
96749.3,15457.6
96749.3,15782.4
96748.9,15792
96747.4,15801.6
96745.1,15811
96741.8,15820.1
96737.7,15828.8
96732.7,15837.1
96727,15844.8
96720.5,15852
96713.3,15858.5
96705.6,15864.2
96697.3,15869.2
96688.6,15873.3
96679.5,15876.6
96670.1,15878.9
96660.6,15880.4
96650.9,15880.8
96139.1,15880.8
96129.4,15880.4
96119.9,15878.9
96110.5,15876.6
96101.4,15873.3
96092.7,15869.2
96084.4,15864.2
96076.7,15858.5
96069.5,15852
96063,15844.8
96057.3,15837.1
96052.3,15828.8
96048.2,15820.1
96044.9,15811
96042.6,15801.6
96041.1,15792
96040.7,15782.4
96040.7,15457.6
96041.1,15448
96042.6,15438.4
96044.9,15429
96048.2,15419.9
96052.3,15411.2
96057.3,15402.9
96063,15395.2
96069.5,15388
96076.7,15381.5
96084.4,15375.8
96092.7,15370.8
96101.4,15366.7
96110.5,15363.4
96119.9,15361.1
96129.4,15359.6
96139.1,15359.2
96650.9,15359.2
Z" /> 
</g>
<g >
</g>
<g style="fill:#840000; fill-opacity:1.0; 
stroke:#840000; stroke-width:0; stroke-opacity:1; 
stroke-linecap:round; stroke-linejoin:round;">
<path style="fill:#840000; fill-opacity:1.0; 
stroke:#840000; stroke-width:0; stroke-opacity:1; 
stroke-linecap:round; stroke-linejoin:round;fill-rule:evenodd;"
d="M 96795.6,17229.5
96805.1,17230.9
96814.5,17233.3
96823.6,17236.5
96832.3,17240.6
96840.6,17245.6
96848.3,17251.4
96855.5,17257.8
96862,17265
96867.7,17272.8
96872.7,17281
96876.8,17289.8
96880.1,17298.9
96882.4,17308.2
96883.9,17317.8
96884.3,17327.4
96884.3,17652.2
96883.9,17661.9
96882.4,17671.4
96880.1,17680.8
96876.8,17689.9
96872.7,17698.6
96867.7,17706.9
96862,17714.7
96855.5,17721.8
96848.3,17728.3
96840.6,17734.1
96832.3,17739
96823.6,17743.2
96814.5,17746.4
96805.1,17748.8
96795.6,17750.2
96785.9,17750.7
96274.1,17750.7
96264.4,17750.2
96254.9,17748.8
96245.5,17746.4
96236.4,17743.2
96227.7,17739
96219.4,17734.1
96211.7,17728.3
96204.5,17721.8
96198,17714.7
96192.3,17706.9
96187.3,17698.6
96183.2,17689.9
96179.9,17680.8
96177.6,17671.4
96176.1,17661.9
96175.7,17652.2
96175.7,17327.4
96176.1,17317.8
96177.6,17308.2
96179.9,17298.9
96183.2,17289.8
96187.3,17281
96192.3,17272.8
96198,17265
96204.5,17257.8
96211.7,17251.4
96219.4,17245.6
96227.7,17240.6
96236.4,17236.5
96245.5,17233.3
96254.9,17230.9
96264.4,17229.5
96274.1,17229
96785.9,17229
Z" /> 
<path style="fill:#840000; fill-opacity:1.0; 
stroke:#840000; stroke-width:0; stroke-opacity:1; 
stroke-linecap:round; stroke-linejoin:round;fill-rule:evenodd;"
d="M 96795.6,18459.8
96805.1,18461.2
96814.5,18463.6
96823.6,18466.8
96832.3,18471
96840.6,18475.9
96848.3,18481.7
96855.5,18488.2
96862,18495.3
96867.7,18503.1
96872.7,18511.4
96876.8,18520.1
96880.1,18529.2
96882.4,18538.6
96883.9,18548.1
96884.3,18557.8
96884.3,18882.6
96883.9,18892.2
96882.4,18901.8
96880.1,18911.1
96876.8,18920.2
96872.7,18929
96867.7,18937.2
96862,18945
96855.5,18952.2
96848.3,18958.6
96840.6,18964.4
96832.3,18969.4
96823.6,18973.5
96814.5,18976.7
96805.1,18979.1
96795.6,18980.5
96785.9,18981
96274.1,18981
96264.4,18980.5
96254.9,18979.1
96245.5,18976.7
96236.4,18973.5
96227.7,18969.4
96219.4,18964.4
96211.7,18958.6
96204.5,18952.2
96198,18945
96192.3,18937.2
96187.3,18929
96183.2,18920.2
96179.9,18911.1
96177.6,18901.8
96176.1,18892.2
96175.7,18882.6
96175.7,18557.8
96176.1,18548.1
96177.6,18538.6
96179.9,18529.2
96183.2,18520.1
96187.3,18511.4
96192.3,18503.1
96198,18495.3
96204.5,18488.2
96211.7,18481.7
96219.4,18475.9
96227.7,18471
96236.4,18466.8
96245.5,18463.6
96254.9,18461.2
96264.4,18459.8
96274.1,18459.3
96785.9,18459.3
Z" /> 
</g>
<g >
</g>
<g style="fill:#840000; fill-opacity:1.0; 
stroke:#840000; stroke-width:0; stroke-opacity:1; 
stroke-linecap:round; stroke-linejoin:round;">
<path style="fill:#840000; fill-opacity:1.0; 
stroke:#840000; stroke-width:0; stroke-opacity:1; 
stroke-linecap:round; stroke-linejoin:round;fill-rule:evenodd;"
d="M 78922.1,31491
78931.7,31492.4
78941.1,31494.8
78950.1,31498
78958.9,31502.1
78967.2,31507.1
78974.9,31512.9
78982.1,31519.3
78988.6,31526.5
78994.3,31534.3
78999.3,31542.5
79003.4,31551.3
79006.7,31560.4
79009,31569.7
79010.4,31579.3
79010.9,31588.9
79010.9,32081.1
79010.4,32090.7
79009,32100.3
79006.7,32109.6
79003.4,32118.7
78999.3,32127.5
78994.3,32135.7
78988.6,32143.5
78982.1,32150.7
78974.9,32157.1
78967.2,32162.9
78958.9,32167.9
78950.1,32172
78941.1,32175.2
78931.7,32177.6
78922.1,32179
78912.5,32179.5
78597.5,32179.5
78587.9,32179
78578.3,32177.6
78568.9,32175.2
78559.9,32172
78551.1,32167.9
78542.8,32162.9
78535.1,32157.1
78527.9,32150.7
78521.4,32143.5
78515.7,32135.7
78510.7,32127.5
78506.6,32118.7
78503.3,32109.6
78501,32100.3
78499.6,32090.7
78499.1,32081.1
78499.1,31588.9
78499.6,31579.3
78501,31569.7
78503.3,31560.4
78506.6,31551.3
78510.7,31542.5
78515.7,31534.3
78521.4,31526.5
78527.9,31519.3
78535.1,31512.9
78542.8,31507.1
78551.1,31502.1
78559.9,31498
78568.9,31494.8
78578.3,31492.4
78587.9,31491
78597.5,31490.5
78912.5,31490.5
Z" /> 
<path style="fill:#840000; fill-opacity:1.0; 
stroke:#840000; stroke-width:0; stroke-opacity:1; 
stroke-linecap:round; stroke-linejoin:round;fill-rule:evenodd;"
d="M 77701.7,31491
77711.2,31492.4
77720.6,31494.8
77729.7,31498
77738.4,31502.1
77746.7,31507.1
77754.4,31512.9
77761.6,31519.3
77768.1,31526.5
77773.8,31534.3
77778.8,31542.5
77782.9,31551.3
77786.2,31560.4
77788.5,31569.7
77790,31579.3
77790.4,31588.9
77790.4,32081.1
77790,32090.7
77788.5,32100.3
77786.2,32109.6
77782.9,32118.7
77778.8,32127.5
77773.8,32135.7
77768.1,32143.5
77761.6,32150.7
77754.4,32157.1
77746.7,32162.9
77738.4,32167.9
77729.7,32172
77720.6,32175.2
77711.2,32177.6
77701.7,32179
77692,32179.5
77377,32179.5
77367.4,32179
77357.8,32177.6
77348.5,32175.2
77339.4,32172
77330.6,32167.9
77322.4,32162.9
77314.6,32157.1
77307.4,32150.7
77301,32143.5
77295.2,32135.7
77290.2,32127.5
77286.1,32118.7
77282.9,32109.6
77280.5,32100.3
77279.1,32090.7
77278.6,32081.1
77278.6,31588.9
77279.1,31579.3
77280.5,31569.7
77282.9,31560.4
77286.1,31551.3
77290.2,31542.5
77295.2,31534.3
77301,31526.5
77307.4,31519.3
77314.6,31512.9
77322.4,31507.1
77330.6,31502.1
77339.4,31498
77348.5,31494.8
77357.8,31492.4
77367.4,31491
77377,31490.5
77692,31490.5
Z" /> 
</g>
<g >
</g>
<g >
</g>
<g >
</g>
<g >
</g>
<g >
</g>
<g >
</g>
<g >
</g>
<g >
</g>
<g style="fill:#840000; fill-opacity:1.0; 
stroke:#840000; stroke-width:0; stroke-opacity:1; 
stroke-linecap:round; stroke-linejoin:round;">
<path style="fill:#840000; fill-opacity:1.0; 
stroke:#840000; stroke-width:0; stroke-opacity:1; 
stroke-linecap:round; stroke-linejoin:round;fill-rule:evenodd;"
d="M 85202.2,22766.1
85211.8,22767.6
85221.1,22769.9
85230.2,22773.2
85239,22777.3
85247.2,22782.3
85255,22788
85262.2,22794.5
85268.6,22801.7
85274.4,22809.4
85279.4,22817.7
85283.5,22826.4
85286.7,22835.5
85289.1,22844.9
85290.5,22854.4
85291,22864.1
85291,23375.9
85290.5,23385.6
85289.1,23395.1
85286.7,23404.5
85283.5,23413.6
85279.4,23422.3
85274.4,23430.6
85268.6,23438.3
85262.2,23445.5
85255,23452
85247.2,23457.7
85239,23462.7
85230.2,23466.8
85221.1,23470.1
85211.8,23472.4
85202.2,23473.9
85192.6,23474.3
84867.8,23474.3
84858.1,23473.9
84848.6,23472.4
84839.2,23470.1
84830.1,23466.8
84821.4,23462.7
84813.1,23457.7
84805.3,23452
84798.2,23445.5
84791.7,23438.3
84785.9,23430.6
84781,23422.3
84776.8,23413.6
84773.6,23404.5
84771.2,23395.1
84769.8,23385.6
84769.3,23375.9
84769.3,22864.1
84769.8,22854.4
84771.2,22844.9
84773.6,22835.5
84776.8,22826.4
84781,22817.7
84785.9,22809.4
84791.7,22801.7
84798.2,22794.5
84805.3,22788
84813.1,22782.3
84821.4,22777.3
84830.1,22773.2
84839.2,22769.9
84848.6,22767.6
84858.1,22766.1
84867.8,22765.7
85192.6,22765.7
Z" /> 
<path style="fill:#840000; fill-opacity:1.0; 
stroke:#840000; stroke-width:0; stroke-opacity:1; 
stroke-linecap:round; stroke-linejoin:round;fill-rule:evenodd;"
d="M 83971.9,22766.1
83981.4,22767.6
83990.8,22769.9
83999.9,22773.2
84008.6,22777.3
84016.9,22782.3
84024.7,22788
84031.8,22794.5
84038.3,22801.7
84044.1,22809.4
84049,22817.7
84053.2,22826.4
84056.4,22835.5
84058.8,22844.9
84060.2,22854.4
84060.7,22864.1
84060.7,23375.9
84060.2,23385.6
84058.8,23395.1
84056.4,23404.5
84053.2,23413.6
84049,23422.3
84044.1,23430.6
84038.3,23438.3
84031.8,23445.5
84024.7,23452
84016.9,23457.7
84008.6,23462.7
83999.9,23466.8
83990.8,23470.1
83981.4,23472.4
83971.9,23473.9
83962.2,23474.3
83637.4,23474.3
83627.8,23473.9
83618.2,23472.4
83608.9,23470.1
83599.8,23466.8
83591,23462.7
83582.8,23457.7
83575,23452
83567.8,23445.5
83561.4,23438.3
83555.6,23430.6
83550.6,23422.3
83546.5,23413.6
83543.3,23404.5
83540.9,23395.1
83539.5,23385.6
83539,23375.9
83539,22864.1
83539.5,22854.4
83540.9,22844.9
83543.3,22835.5
83546.5,22826.4
83550.6,22817.7
83555.6,22809.4
83561.4,22801.7
83567.8,22794.5
83575,22788
83582.8,22782.3
83591,22777.3
83599.8,22773.2
83608.9,22769.9
83618.2,22767.6
83627.8,22766.1
83637.4,22765.7
83962.2,22765.7
Z" /> 
</g>
<g >
</g>
<g style="fill:#840000; fill-opacity:1.0; 
stroke:#840000; stroke-width:0; stroke-opacity:1; 
stroke-linecap:round; stroke-linejoin:round;">
<path style="fill:#840000; fill-opacity:1.0; 
stroke:#840000; stroke-width:0; stroke-opacity:1; 
stroke-linecap:round; stroke-linejoin:round;fill-rule:evenodd;"
d="M 96720.6,25474.3
96730.1,25475.7
96739.5,25478.1
96748.6,25481.4
96757.3,25485.5
96765.6,25490.4
96773.3,25496.2
96780.5,25502.7
96787,25509.8
96792.7,25517.6
96797.7,25525.9
96801.8,25534.6
96805.1,25543.7
96807.4,25553.1
96808.9,25562.6
96809.3,25572.3
96809.3,25897.1
96808.9,25906.7
96807.4,25916.3
96805.1,25925.7
96801.8,25934.8
96797.7,25943.5
96792.7,25951.8
96787,25959.5
96780.5,25966.7
96773.3,25973.2
96765.6,25978.9
96757.3,25983.9
96748.6,25988
96739.5,25991.3
96730.1,25993.6
96720.6,25995
96710.9,25995.5
96199.1,25995.5
96189.4,25995
96179.9,25993.6
96170.5,25991.3
96161.4,25988
96152.7,25983.9
96144.4,25978.9
96136.7,25973.2
96129.5,25966.7
96123,25959.5
96117.3,25951.8
96112.3,25943.5
96108.2,25934.8
96104.9,25925.7
96102.6,25916.3
96101.1,25906.7
96100.7,25897.1
96100.7,25572.3
96101.1,25562.6
96102.6,25553.1
96104.9,25543.7
96108.2,25534.6
96112.3,25525.9
96117.3,25517.6
96123,25509.8
96129.5,25502.7
96136.7,25496.2
96144.4,25490.4
96152.7,25485.5
96161.4,25481.4
96170.5,25478.1
96179.9,25475.7
96189.4,25474.3
96199.1,25473.9
96710.9,25473.9
Z" /> 
<path style="fill:#840000; fill-opacity:1.0; 
stroke:#840000; stroke-width:0; stroke-opacity:1; 
stroke-linecap:round; stroke-linejoin:round;fill-rule:evenodd;"
d="M 96720.6,26704.6
96730.1,26706.1
96739.5,26708.4
96748.6,26711.7
96757.3,26715.8
96765.6,26720.8
96773.3,26726.5
96780.5,26733
96787,26740.2
96792.7,26747.9
96797.7,26756.2
96801.8,26764.9
96805.1,26774
96807.4,26783.4
96808.9,26793
96809.3,26802.6
96809.3,27127.4
96808.9,27137
96807.4,27146.6
96805.1,27156
96801.8,27165.1
96797.7,27173.8
96792.7,27182.1
96787,27189.8
96780.5,27197
96773.3,27203.5
96765.6,27209.2
96757.3,27214.2
96748.6,27218.3
96739.5,27221.6
96730.1,27223.9
96720.6,27225.4
96710.9,27225.8
96199.1,27225.8
96189.4,27225.4
96179.9,27223.9
96170.5,27221.6
96161.4,27218.3
96152.7,27214.2
96144.4,27209.2
96136.7,27203.5
96129.5,27197
96123,27189.8
96117.3,27182.1
96112.3,27173.8
96108.2,27165.1
96104.9,27156
96102.6,27146.6
96101.1,27137
96100.7,27127.4
96100.7,26802.6
96101.1,26793
96102.6,26783.4
96104.9,26774
96108.2,26764.9
96112.3,26756.2
96117.3,26747.9
96123,26740.2
96129.5,26733
96136.7,26726.5
96144.4,26720.8
96152.7,26715.8
96161.4,26711.7
96170.5,26708.4
96179.9,26706.1
96189.4,26704.6
96199.1,26704.2
96710.9,26704.2
Z" /> 
</g>
<g >
</g>
<g style="fill:#840000; fill-opacity:1.0; 
stroke:#840000; stroke-width:0; stroke-opacity:1; 
stroke-linecap:round; stroke-linejoin:round;">
<path style="fill:#840000; fill-opacity:1.0; 
stroke:#840000; stroke-width:0; stroke-opacity:1; 
stroke-linecap:round; stroke-linejoin:round;fill-rule:evenodd;"
d="M 77737,30371.1
77746.6,30372.6
77756,30374.9
77765.1,30378.2
77773.8,30382.3
77782.1,30387.3
77789.8,30393
77797,30399.5
77803.5,30406.7
77809.2,30414.4
77814.2,30422.7
77818.3,30431.4
77821.6,30440.5
77823.9,30449.9
77825.4,30459.4
77825.8,30469.1
77825.8,30980.9
77825.4,30990.6
77823.9,31000.1
77821.6,31009.5
77818.3,31018.6
77814.2,31027.3
77809.2,31035.6
77803.5,31043.3
77797,31050.5
77789.8,31057
77782.1,31062.7
77773.8,31067.7
77765.1,31071.8
77756,31075.1
77746.6,31077.4
77737,31078.9
77727.4,31079.3
77402.6,31079.3
77393,31078.9
77383.4,31077.4
77374,31075.1
77364.9,31071.8
77356.2,31067.7
77347.9,31062.7
77340.2,31057
77333,31050.5
77326.5,31043.3
77320.8,31035.6
77315.8,31027.3
77311.7,31018.6
77308.4,31009.5
77306.1,31000.1
77304.6,30990.6
77304.2,30980.9
77304.2,30469.1
77304.6,30459.4
77306.1,30449.9
77308.4,30440.5
77311.7,30431.4
77315.8,30422.7
77320.8,30414.4
77326.5,30406.7
77333,30399.5
77340.2,30393
77347.9,30387.3
77356.2,30382.3
77364.9,30378.2
77374,30374.9
77383.4,30372.6
77393,30371.1
77402.6,30370.7
77727.4,30370.7
Z" /> 
<path style="fill:#840000; fill-opacity:1.0; 
stroke:#840000; stroke-width:0; stroke-opacity:1; 
stroke-linecap:round; stroke-linejoin:round;fill-rule:evenodd;"
d="M 78967.4,30371.1
78976.9,30372.6
78986.3,30374.9
78995.4,30378.2
79004.1,30382.3
79012.4,30387.3
79020.2,30393
79027.3,30399.5
79033.8,30406.7
79039.6,30414.4
79044.5,30422.7
79048.6,30431.4
79051.9,30440.5
79054.3,30449.9
79055.7,30459.4
79056.1,30469.1
79056.1,30980.9
79055.7,30990.6
79054.3,31000.1
79051.9,31009.5
79048.6,31018.6
79044.5,31027.3
79039.6,31035.6
79033.8,31043.3
79027.3,31050.5
79020.2,31057
79012.4,31062.7
79004.1,31067.7
78995.4,31071.8
78986.3,31075.1
78976.9,31077.4
78967.4,31078.9
78957.7,31079.3
78632.9,31079.3
78623.3,31078.9
78613.7,31077.4
78604.3,31075.1
78595.2,31071.8
78586.5,31067.7
78578.2,31062.7
78570.5,31057
78563.3,31050.5
78556.8,31043.3
78551.1,31035.6
78546.1,31027.3
78542,31018.6
78538.7,31009.5
78536.4,31000.1
78535,30990.6
78534.5,30980.9
78534.5,30469.1
78535,30459.4
78536.4,30449.9
78538.7,30440.5
78542,30431.4
78546.1,30422.7
78551.1,30414.4
78556.8,30406.7
78563.3,30399.5
78570.5,30393
78578.2,30387.3
78586.5,30382.3
78595.2,30378.2
78604.3,30374.9
78613.7,30372.6
78623.3,30371.1
78632.9,30370.7
78957.7,30370.7
Z" /> 
</g>
<g >
</g>
<g style="fill:#840000; fill-opacity:1.0; 
stroke:#840000; stroke-width:0; stroke-opacity:1; 
stroke-linecap:round; stroke-linejoin:round;">
<path style="fill:#840000; fill-opacity:1.0; 
stroke:#840000; stroke-width:0; stroke-opacity:1; 
stroke-linecap:round; stroke-linejoin:round;fill-rule:evenodd;"
d="M 76672,24146.1
76681.6,24147.6
76691,24149.9
76700.1,24153.2
76708.8,24157.3
76717.1,24162.3
76724.8,24168
76732,24174.5
76738.5,24181.7
76744.2,24189.4
76749.2,24197.7
76753.3,24206.4
76756.6,24215.5
76758.9,24224.9
76760.4,24234.4
76760.8,24244.1
76760.8,24755.9
76760.4,24765.6
76758.9,24775.1
76756.6,24784.5
76753.3,24793.6
76749.2,24802.3
76744.2,24810.6
76738.5,24818.3
76732,24825.5
76724.8,24832
76717.1,24837.7
76708.8,24842.7
76700.1,24846.8
76691,24850.1
76681.6,24852.4
76672,24853.9
76662.4,24854.3
76337.6,24854.3
76328,24853.9
76318.4,24852.4
76309,24850.1
76299.9,24846.8
76291.2,24842.7
76282.9,24837.7
76275.2,24832
76268,24825.5
76261.5,24818.3
76255.8,24810.6
76250.8,24802.3
76246.7,24793.6
76243.4,24784.5
76241.1,24775.1
76239.6,24765.6
76239.2,24755.9
76239.2,24244.1
76239.6,24234.4
76241.1,24224.9
76243.4,24215.5
76246.7,24206.4
76250.8,24197.7
76255.8,24189.4
76261.5,24181.7
76268,24174.5
76275.2,24168
76282.9,24162.3
76291.2,24157.3
76299.9,24153.2
76309,24149.9
76318.4,24147.6
76328,24146.1
76337.6,24145.7
76662.4,24145.7
Z" /> 
<path style="fill:#840000; fill-opacity:1.0; 
stroke:#840000; stroke-width:0; stroke-opacity:1; 
stroke-linecap:round; stroke-linejoin:round;fill-rule:evenodd;"
d="M 77902.4,24146.1
77911.9,24147.6
77921.3,24149.9
77930.4,24153.2
77939.1,24157.3
77947.4,24162.3
77955.2,24168
77962.3,24174.5
77968.8,24181.7
77974.6,24189.4
77979.5,24197.7
77983.6,24206.4
77986.9,24215.5
77989.3,24224.9
77990.7,24234.4
77991.1,24244.1
77991.1,24755.9
77990.7,24765.6
77989.3,24775.1
77986.9,24784.5
77983.6,24793.6
77979.5,24802.3
77974.6,24810.6
77968.8,24818.3
77962.3,24825.5
77955.2,24832
77947.4,24837.7
77939.1,24842.7
77930.4,24846.8
77921.3,24850.1
77911.9,24852.4
77902.4,24853.9
77892.7,24854.3
77567.9,24854.3
77558.3,24853.9
77548.7,24852.4
77539.3,24850.1
77530.2,24846.8
77521.5,24842.7
77513.2,24837.7
77505.5,24832
77498.3,24825.5
77491.8,24818.3
77486.1,24810.6
77481.1,24802.3
77477,24793.6
77473.7,24784.5
77471.4,24775.1
77470,24765.6
77469.5,24755.9
77469.5,24244.1
77470,24234.4
77471.4,24224.9
77473.7,24215.5
77477,24206.4
77481.1,24197.7
77486.1,24189.4
77491.8,24181.7
77498.3,24174.5
77505.5,24168
77513.2,24162.3
77521.5,24157.3
77530.2,24153.2
77539.3,24149.9
77548.7,24147.6
77558.3,24146.1
77567.9,24145.7
77892.7,24145.7
Z" /> 
</g>
<g >
</g>
<g style="fill:#840000; fill-opacity:1.0; 
stroke:#840000; stroke-width:0; stroke-opacity:1; 
stroke-linecap:round; stroke-linejoin:round;">
<path style="fill:#840000; fill-opacity:1.0; 
stroke:#840000; stroke-width:0; stroke-opacity:1; 
stroke-linecap:round; stroke-linejoin:round;fill-rule:evenodd;"
d="M 87702.2,22766.1
87711.8,22767.6
87721.1,22769.9
87730.2,22773.2
87739,22777.3
87747.2,22782.3
87755,22788
87762.2,22794.5
87768.6,22801.7
87774.4,22809.4
87779.4,22817.7
87783.5,22826.4
87786.7,22835.5
87789.1,22844.9
87790.5,22854.4
87791,22864.1
87791,23375.9
87790.5,23385.6
87789.1,23395.1
87786.7,23404.5
87783.5,23413.6
87779.4,23422.3
87774.4,23430.6
87768.6,23438.3
87762.2,23445.5
87755,23452
87747.2,23457.7
87739,23462.7
87730.2,23466.8
87721.1,23470.1
87711.8,23472.4
87702.2,23473.9
87692.6,23474.3
87367.8,23474.3
87358.1,23473.9
87348.6,23472.4
87339.2,23470.1
87330.1,23466.8
87321.4,23462.7
87313.1,23457.7
87305.3,23452
87298.2,23445.5
87291.7,23438.3
87285.9,23430.6
87281,23422.3
87276.8,23413.6
87273.6,23404.5
87271.2,23395.1
87269.8,23385.6
87269.3,23375.9
87269.3,22864.1
87269.8,22854.4
87271.2,22844.9
87273.6,22835.5
87276.8,22826.4
87281,22817.7
87285.9,22809.4
87291.7,22801.7
87298.2,22794.5
87305.3,22788
87313.1,22782.3
87321.4,22777.3
87330.1,22773.2
87339.2,22769.9
87348.6,22767.6
87358.1,22766.1
87367.8,22765.7
87692.6,22765.7
Z" /> 
<path style="fill:#840000; fill-opacity:1.0; 
stroke:#840000; stroke-width:0; stroke-opacity:1; 
stroke-linecap:round; stroke-linejoin:round;fill-rule:evenodd;"
d="M 86471.9,22766.1
86481.4,22767.6
86490.8,22769.9
86499.9,22773.2
86508.6,22777.3
86516.9,22782.3
86524.7,22788
86531.8,22794.5
86538.3,22801.7
86544.1,22809.4
86549,22817.7
86553.2,22826.4
86556.4,22835.5
86558.8,22844.9
86560.2,22854.4
86560.7,22864.1
86560.7,23375.9
86560.2,23385.6
86558.8,23395.1
86556.4,23404.5
86553.2,23413.6
86549,23422.3
86544.1,23430.6
86538.3,23438.3
86531.8,23445.5
86524.7,23452
86516.9,23457.7
86508.6,23462.7
86499.9,23466.8
86490.8,23470.1
86481.4,23472.4
86471.9,23473.9
86462.2,23474.3
86137.4,23474.3
86127.8,23473.9
86118.2,23472.4
86108.9,23470.1
86099.8,23466.8
86091,23462.7
86082.8,23457.7
86075,23452
86067.8,23445.5
86061.4,23438.3
86055.6,23430.6
86050.6,23422.3
86046.5,23413.6
86043.3,23404.5
86040.9,23395.1
86039.5,23385.6
86039,23375.9
86039,22864.1
86039.5,22854.4
86040.9,22844.9
86043.3,22835.5
86046.5,22826.4
86050.6,22817.7
86055.6,22809.4
86061.4,22801.7
86067.8,22794.5
86075,22788
86082.8,22782.3
86091,22777.3
86099.8,22773.2
86108.9,22769.9
86118.2,22767.6
86127.8,22766.1
86137.4,22765.7
86462.2,22765.7
Z" /> 
</g>
<g >
</g>
<g >
</g>
<g style="fill:#840000; fill-opacity:1.0; 
stroke:#840000; stroke-width:0; stroke-opacity:1; 
stroke-linecap:round; stroke-linejoin:round;">
<path style="fill:#840000; fill-opacity:1.0; 
stroke:#840000; stroke-width:0; stroke-opacity:1; 
stroke-linecap:round; stroke-linejoin:round;fill-rule:evenodd;"
d="M 96720.6,22589.5
96730.1,22590.9
96739.5,22593.3
96748.6,22596.5
96757.3,22600.6
96765.6,22605.6
96773.3,22611.4
96780.5,22617.8
96787,22625
96792.7,22632.8
96797.7,22641
96801.8,22649.8
96805.1,22658.9
96807.4,22668.2
96808.9,22677.8
96809.3,22687.4
96809.3,23012.2
96808.9,23021.9
96807.4,23031.4
96805.1,23040.8
96801.8,23049.9
96797.7,23058.6
96792.7,23066.9
96787,23074.7
96780.5,23081.8
96773.3,23088.3
96765.6,23094.1
96757.3,23099
96748.6,23103.2
96739.5,23106.4
96730.1,23108.8
96720.6,23110.2
96710.9,23110.7
96199.1,23110.7
96189.4,23110.2
96179.9,23108.8
96170.5,23106.4
96161.4,23103.2
96152.7,23099
96144.4,23094.1
96136.7,23088.3
96129.5,23081.8
96123,23074.7
96117.3,23066.9
96112.3,23058.6
96108.2,23049.9
96104.9,23040.8
96102.6,23031.4
96101.1,23021.9
96100.7,23012.2
96100.7,22687.4
96101.1,22677.8
96102.6,22668.2
96104.9,22658.9
96108.2,22649.8
96112.3,22641
96117.3,22632.8
96123,22625
96129.5,22617.8
96136.7,22611.4
96144.4,22605.6
96152.7,22600.6
96161.4,22596.5
96170.5,22593.3
96179.9,22590.9
96189.4,22589.5
96199.1,22589
96710.9,22589
Z" /> 
<path style="fill:#840000; fill-opacity:1.0; 
stroke:#840000; stroke-width:0; stroke-opacity:1; 
stroke-linecap:round; stroke-linejoin:round;fill-rule:evenodd;"
d="M 96720.6,23819.8
96730.1,23821.2
96739.5,23823.6
96748.6,23826.8
96757.3,23831
96765.6,23835.9
96773.3,23841.7
96780.5,23848.2
96787,23855.3
96792.7,23863.1
96797.7,23871.4
96801.8,23880.1
96805.1,23889.2
96807.4,23898.6
96808.9,23908.1
96809.3,23917.8
96809.3,24242.6
96808.9,24252.2
96807.4,24261.8
96805.1,24271.1
96801.8,24280.2
96797.7,24289
96792.7,24297.2
96787,24305
96780.5,24312.2
96773.3,24318.6
96765.6,24324.4
96757.3,24329.4
96748.6,24333.5
96739.5,24336.7
96730.1,24339.1
96720.6,24340.5
96710.9,24341
96199.1,24341
96189.4,24340.5
96179.9,24339.1
96170.5,24336.7
96161.4,24333.5
96152.7,24329.4
96144.4,24324.4
96136.7,24318.6
96129.5,24312.2
96123,24305
96117.3,24297.2
96112.3,24289
96108.2,24280.2
96104.9,24271.1
96102.6,24261.8
96101.1,24252.2
96100.7,24242.6
96100.7,23917.8
96101.1,23908.1
96102.6,23898.6
96104.9,23889.2
96108.2,23880.1
96112.3,23871.4
96117.3,23863.1
96123,23855.3
96129.5,23848.2
96136.7,23841.7
96144.4,23835.9
96152.7,23831
96161.4,23826.8
96170.5,23823.6
96179.9,23821.2
96189.4,23819.8
96199.1,23819.3
96710.9,23819.3
Z" /> 
</g>
<g >
</g>
<g style="fill:#840000; fill-opacity:1.0; 
stroke:#840000; stroke-width:0; stroke-opacity:1; 
stroke-linecap:round; stroke-linejoin:round;">
<path style="fill:#840000; fill-opacity:1.0; 
stroke:#840000; stroke-width:0; stroke-opacity:1; 
stroke-linecap:round; stroke-linejoin:round;fill-rule:evenodd;"
d="M 91281.8,26835.1
91281.8,27819.3
90297.5,27819.3
90297.5,26835.1
Z" /> 
<path style="fill:#840000; fill-opacity:1.0; 
stroke:#840000; stroke-width:0; stroke-opacity:1; 
stroke-linecap:round; stroke-linejoin:round;fill-rule:evenodd;"
d="M 95612.5,26835.1
95612.5,27819.3
94628.2,27819.3
94628.2,26835.1
Z" /> 
<path style="fill:#840000; fill-opacity:1.0; 
stroke:#840000; stroke-width:0; stroke-opacity:1; 
stroke-linecap:round; stroke-linejoin:round;fill-rule:evenodd;"
d="M 94628.2,23094.9
94628.2,22110.7
95612.5,22110.7
95612.5,23094.9
Z" /> 
<path style="fill:#840000; fill-opacity:1.0; 
stroke:#840000; stroke-width:0; stroke-opacity:1; 
stroke-linecap:round; stroke-linejoin:round;fill-rule:evenodd;"
d="M 90297.5,23094.9
90297.5,22110.7
91281.8,22110.7
91281.8,23094.9
Z" /> 
</g>
<g >
</g>
<g >
</g>
<g >
</g>
<g >
</g>
<g >
</g>
<g >
</g>
<g >
</g>
<g >
</g>
</g>
<g style="fill:#000000; fill-opacity:1.0; 
stroke:#000000; stroke-width:0; stroke-opacity:1; 
stroke-linecap:round; stroke-linejoin:round;">
</g>
<g style="fill:#C2C200; fill-opacity:1.0; 
stroke:#C2C200; stroke-width:0; stroke-opacity:1; 
stroke-linecap:round; stroke-linejoin:round;">
</g>
<g style="fill:#C2C200; fill-opacity:0.0; 
stroke:#C2C200; stroke-width:19.685; stroke-opacity:1; 
stroke-linecap:round; stroke-linejoin:round;">
<path d="M102000 11150 A750 750 0.0 0 0 101250 10400" />
<path d="M32750 10400 A750 750 0.0 0 0 32000 11150" />
<path d="M32000 51900 A750 750 0.0 0 0 32750 52650" />
<path d="M101250 52650 A750 750 0.0 0 0 102000 51900" />
<path d="M102000 51900
L102000 11150
" />
<path d="M32750 52650
L101250 52650
" />
<path d="M32000 11150
L32000 51900
" />
<path d="M101250 10400
L32750 10400
" />
<g >
</g>
<g >
</g>
<g >
</g>
<g >
</g>
<g >
</g>
<g >
</g>
<g >
</g>
<g >
</g>
<g >
</g>
<g >
</g>
<g >
</g>
<g >
</g>
<g >
</g>
<g >
</g>
<g >
</g>
<g >
</g>
<g >
</g>
<g >
</g>
<g >
</g>
<g >
</g>
<g >
</g>
<g >
</g>
<g >
</g>
<g >
</g>
<g >
</g>
<g >
</g>
<g >
</g>
<g >
</g>
<g >
</g>
<g >
</g>
<g >
</g>
<g >
</g>
<g >
</g>
<g >
</g>
<g >
</g>
<g >
</g>
<g >
</g>
<g >
</g>
</g> 
</svg>
